<svg xmlns="http://www.w3.org/2000/svg" viewBox="0 0 720 380" width="720" height="380" font-family="system-ui, sans-serif" font-size="12">
<text x="360" y="24" fill="#8b949e" font-size="14" text-anchor="middle">Opaque silver mirror at 45°</text>
<line x1="64" y1="328.0" x2="700" y2="328.0" stroke="#8b949e" stroke-opacity="0.18"/>
<text x="56" y="332.0" fill="#8b949e" text-anchor="end">-0.493</text>
<line x1="64" y1="271.2" x2="700" y2="271.2" stroke="#8b949e" stroke-opacity="0.18"/>
<text x="56" y="275.2" fill="#8b949e" text-anchor="end">19.704</text>
<line x1="64" y1="214.4" x2="700" y2="214.4" stroke="#8b949e" stroke-opacity="0.18"/>
<text x="56" y="218.4" fill="#8b949e" text-anchor="end">39.901</text>
<line x1="64" y1="157.6" x2="700" y2="157.6" stroke="#8b949e" stroke-opacity="0.18"/>
<text x="56" y="161.6" fill="#8b949e" text-anchor="end">60.099</text>
<line x1="64" y1="100.8" x2="700" y2="100.8" stroke="#8b949e" stroke-opacity="0.18"/>
<text x="56" y="104.8" fill="#8b949e" text-anchor="end">80.296</text>
<line x1="64" y1="44.0" x2="700" y2="44.0" stroke="#8b949e" stroke-opacity="0.18"/>
<text x="56" y="48.0" fill="#8b949e" text-anchor="end">100.493</text>
<text x="64.0" y="348" fill="#8b949e" text-anchor="middle">400</text>
<text x="191.2" y="348" fill="#8b949e" text-anchor="middle">480</text>
<text x="318.4" y="348" fill="#8b949e" text-anchor="middle">560</text>
<text x="445.6" y="348" fill="#8b949e" text-anchor="middle">640</text>
<text x="572.8" y="348" fill="#8b949e" text-anchor="middle">720</text>
<text x="700.0" y="348" fill="#8b949e" text-anchor="middle">800</text>
<line x1="64" y1="328" x2="700" y2="328" stroke="#8b949e"/>
<line x1="64" y1="44" x2="64" y2="328" stroke="#8b949e"/>
<text x="382" y="368" fill="#8b949e" text-anchor="middle">wavelength (nm)</text>
<text x="16" y="186" fill="#8b949e" text-anchor="middle" transform="rotate(-90 16 186)">percent</text>
<path d="M64.00,57.80L67.18,57.80L70.36,57.79L73.54,57.79L76.72,57.79L79.90,57.79L83.08,57.79L86.26,57.79L89.44,57.78L92.62,57.78L95.80,57.78L98.98,57.78L102.16,57.78L105.34,57.78L108.52,57.77L111.70,57.77L114.88,57.77L118.06,57.77L121.24,57.77L124.42,57.76L127.60,57.76L130.78,57.76L133.96,57.76L137.14,57.75L140.32,57.75L143.50,57.75L146.68,57.75L149.86,57.74L153.04,57.74L156.22,57.74L159.40,57.74L162.58,57.73L165.76,57.73L168.94,57.73L172.12,57.73L175.30,57.72L178.48,57.72L181.66,57.72L184.84,57.71L188.02,57.71L191.20,57.71L194.38,57.70L197.56,57.70L200.74,57.70L203.92,57.69L207.10,57.69L210.28,57.69L213.46,57.68L216.64,57.68L219.82,57.68L223.00,57.67L226.18,57.67L229.36,57.67L232.54,57.66L235.72,57.66L238.90,57.66L242.08,57.65L245.26,57.65L248.44,57.65L251.62,57.64L254.80,57.64L257.98,57.63L261.16,57.63L264.34,57.63L267.52,57.62L270.70,57.62L273.88,57.61L277.06,57.61L280.24,57.61L283.42,57.60L286.60,57.60L289.78,57.59L292.96,57.59L296.14,57.59L299.32,57.58L302.50,57.58L305.68,57.57L308.86,57.57L312.04,57.56L315.22,57.56L318.40,57.56L321.58,57.55L324.76,57.55L327.94,57.54L331.12,57.54L334.30,57.53L337.48,57.53L340.66,57.52L343.84,57.52L347.02,57.52L350.20,57.51L353.38,57.51L356.56,57.50L359.74,57.50L362.92,57.49L366.10,57.49L369.28,57.48L372.46,57.48L375.64,57.47L378.82,57.47L382.00,57.46L385.18,57.46L388.36,57.45L391.54,57.45L394.72,57.44L397.90,57.44L401.08,57.43L404.26,57.43L407.44,57.42L410.62,57.42L413.80,57.41L416.98,57.41L420.16,57.40L423.34,57.40L426.52,57.39L429.70,57.39L432.88,57.38L436.06,57.38L439.24,57.37L442.42,57.37L445.60,57.36L448.78,57.36L451.96,57.35L455.14,57.35L458.32,57.34L461.50,57.34L464.68,57.33L467.86,57.33L471.04,57.32L474.22,57.32L477.40,57.31L480.58,57.30L483.76,57.30L486.94,57.29L490.12,57.29L493.30,57.28L496.48,57.28L499.66,57.27L502.84,57.27L506.02,57.26L509.20,57.26L512.38,57.25L515.56,57.25L518.74,57.24L521.92,57.23L525.10,57.23L528.28,57.22L531.46,57.22L534.64,57.21L537.82,57.21L541.00,57.20L544.18,57.19L547.36,57.19L550.54,57.18L553.72,57.18L556.90,57.17L560.08,57.17L563.26,57.16L566.44,57.16L569.62,57.15L572.80,57.14L575.98,57.14L579.16,57.13L582.34,57.13L585.52,57.12L588.70,57.12L591.88,57.11L595.06,57.10L598.24,57.10L601.42,57.09L604.60,57.09L607.78,57.08L610.96,57.07L614.14,57.07L617.32,57.06L620.50,57.06L623.68,57.05L626.86,57.05L630.04,57.04L633.22,57.03L636.40,57.03L639.58,57.02L642.76,57.02L645.94,57.01L649.12,57.00L652.30,57.00L655.48,56.99L658.66,56.99L661.84,56.98L665.02,56.97L668.20,56.97L671.38,56.96L674.56,56.96L677.74,56.95L680.92,56.95L684.10,56.94L687.28,56.93L690.46,56.93L693.64,56.92L696.82,56.92L700.00,56.91" fill="none" stroke="#2f81f7" stroke-width="2" stroke-linejoin="round"/>
<line x1="550" y1="58" x2="574" y2="58" stroke="#2f81f7" stroke-width="2"/>
<text x="580" y="62" fill="#8b949e">R (s-pol)</text>
<path d="M64.00,69.66L67.18,69.66L70.36,69.65L73.54,69.65L76.72,69.65L79.90,69.65L83.08,69.64L86.26,69.64L89.44,69.64L92.62,69.63L95.80,69.63L98.98,69.63L102.16,69.62L105.34,69.62L108.52,69.62L111.70,69.61L114.88,69.61L118.06,69.60L121.24,69.60L124.42,69.60L127.60,69.59L130.78,69.59L133.96,69.58L137.14,69.58L140.32,69.57L143.50,69.57L146.68,69.56L149.86,69.56L153.04,69.55L156.22,69.55L159.40,69.54L162.58,69.54L165.76,69.53L168.94,69.53L172.12,69.52L175.30,69.52L178.48,69.51L181.66,69.51L184.84,69.50L188.02,69.49L191.20,69.49L194.38,69.48L197.56,69.48L200.74,69.47L203.92,69.46L207.10,69.46L210.28,69.45L213.46,69.44L216.64,69.44L219.82,69.43L223.00,69.43L226.18,69.42L229.36,69.41L232.54,69.41L235.72,69.40L238.90,69.39L242.08,69.38L245.26,69.38L248.44,69.37L251.62,69.36L254.80,69.36L257.98,69.35L261.16,69.34L264.34,69.33L267.52,69.33L270.70,69.32L273.88,69.31L277.06,69.30L280.24,69.30L283.42,69.29L286.60,69.28L289.78,69.27L292.96,69.26L296.14,69.26L299.32,69.25L302.50,69.24L305.68,69.23L308.86,69.22L312.04,69.22L315.22,69.21L318.40,69.20L321.58,69.19L324.76,69.18L327.94,69.17L331.12,69.16L334.30,69.16L337.48,69.15L340.66,69.14L343.84,69.13L347.02,69.12L350.20,69.11L353.38,69.10L356.56,69.09L359.74,69.09L362.92,69.08L366.10,69.07L369.28,69.06L372.46,69.05L375.64,69.04L378.82,69.03L382.00,69.02L385.18,69.01L388.36,69.00L391.54,68.99L394.72,68.98L397.90,68.98L401.08,68.97L404.26,68.96L407.44,68.95L410.62,68.94L413.80,68.93L416.98,68.92L420.16,68.91L423.34,68.90L426.52,68.89L429.70,68.88L432.88,68.87L436.06,68.86L439.24,68.85L442.42,68.84L445.60,68.83L448.78,68.82L451.96,68.81L455.14,68.80L458.32,68.79L461.50,68.78L464.68,68.77L467.86,68.76L471.04,68.75L474.22,68.74L477.40,68.73L480.58,68.72L483.76,68.71L486.94,68.70L490.12,68.69L493.30,68.68L496.48,68.67L499.66,68.66L502.84,68.65L506.02,68.64L509.20,68.62L512.38,68.61L515.56,68.60L518.74,68.59L521.92,68.58L525.10,68.57L528.28,68.56L531.46,68.55L534.64,68.54L537.82,68.53L541.00,68.52L544.18,68.51L547.36,68.50L550.54,68.49L553.72,68.48L556.90,68.46L560.08,68.45L563.26,68.44L566.44,68.43L569.62,68.42L572.80,68.41L575.98,68.40L579.16,68.39L582.34,68.38L585.52,68.37L588.70,68.36L591.88,68.34L595.06,68.33L598.24,68.32L601.42,68.31L604.60,68.30L607.78,68.29L610.96,68.28L614.14,68.27L617.32,68.26L620.50,68.24L623.68,68.23L626.86,68.22L630.04,68.21L633.22,68.20L636.40,68.19L639.58,68.18L642.76,68.17L645.94,68.15L649.12,68.14L652.30,68.13L655.48,68.12L658.66,68.11L661.84,68.10L665.02,68.09L668.20,68.07L671.38,68.06L674.56,68.05L677.74,68.04L680.92,68.03L684.10,68.02L687.28,68.01L690.46,67.99L693.64,67.98L696.82,67.97L700.00,67.96" fill="none" stroke="#d29922" stroke-width="2" stroke-linejoin="round"/>
<line x1="550" y1="76" x2="574" y2="76" stroke="#d29922" stroke-width="2"/>
<text x="580" y="80" fill="#8b949e">R (p-pol)</text>
<path d="M64.00,314.20L67.18,314.20L70.36,314.21L73.54,314.21L76.72,314.21L79.90,314.21L83.08,314.21L86.26,314.21L89.44,314.21L92.62,314.22L95.80,314.22L98.98,314.22L102.16,314.22L105.34,314.22L108.52,314.23L111.70,314.23L114.88,314.23L118.06,314.23L121.24,314.23L124.42,314.24L127.60,314.24L130.78,314.24L133.96,314.24L137.14,314.25L140.32,314.25L143.50,314.25L146.68,314.25L149.86,314.26L153.04,314.26L156.22,314.26L159.40,314.26L162.58,314.27L165.76,314.27L168.94,314.27L172.12,314.27L175.30,314.28L178.48,314.28L181.66,314.28L184.84,314.29L188.02,314.29L191.20,314.29L194.38,314.30L197.56,314.30L200.74,314.30L203.92,314.31L207.10,314.31L210.28,314.31L213.46,314.32L216.64,314.32L219.82,314.32L223.00,314.33L226.18,314.33L229.36,314.33L232.54,314.34L235.72,314.34L238.90,314.34L242.08,314.35L245.26,314.35L248.44,314.35L251.62,314.36L254.80,314.36L257.98,314.37L261.16,314.37L264.34,314.37L267.52,314.38L270.70,314.38L273.88,314.39L277.06,314.39L280.24,314.39L283.42,314.40L286.60,314.40L289.78,314.41L292.96,314.41L296.14,314.41L299.32,314.42L302.50,314.42L305.68,314.43L308.86,314.43L312.04,314.44L315.22,314.44L318.40,314.44L321.58,314.45L324.76,314.45L327.94,314.46L331.12,314.46L334.30,314.47L337.48,314.47L340.66,314.48L343.84,314.48L347.02,314.48L350.20,314.49L353.38,314.49L356.56,314.50L359.74,314.50L362.92,314.51L366.10,314.51L369.28,314.52L372.46,314.52L375.64,314.53L378.82,314.53L382.00,314.54L385.18,314.54L388.36,314.55L391.54,314.55L394.72,314.56L397.90,314.56L401.08,314.57L404.26,314.57L407.44,314.58L410.62,314.58L413.80,314.59L416.98,314.59L420.16,314.60L423.34,314.60L426.52,314.61L429.70,314.61L432.88,314.62L436.06,314.62L439.24,314.63L442.42,314.63L445.60,314.64L448.78,314.64L451.96,314.65L455.14,314.65L458.32,314.66L461.50,314.66L464.68,314.67L467.86,314.67L471.04,314.68L474.22,314.68L477.40,314.69L480.58,314.69L483.76,314.70L486.94,314.71L490.12,314.71L493.30,314.72L496.48,314.72L499.66,314.73L502.84,314.73L506.02,314.74L509.20,314.74L512.38,314.75L515.56,314.75L518.74,314.76L521.92,314.77L525.10,314.77L528.28,314.78L531.46,314.78L534.64,314.79L537.82,314.79L541.00,314.80L544.18,314.80L547.36,314.81L550.54,314.82L553.72,314.82L556.90,314.83L560.08,314.83L563.26,314.84L566.44,314.84L569.62,314.85L572.80,314.86L575.98,314.86L579.16,314.87L582.34,314.87L585.52,314.88L588.70,314.88L591.88,314.89L595.06,314.90L598.24,314.90L601.42,314.91L604.60,314.91L607.78,314.92L610.96,314.93L614.14,314.93L617.32,314.94L620.50,314.94L623.68,314.95L626.86,314.95L630.04,314.96L633.22,314.97L636.40,314.97L639.58,314.98L642.76,314.98L645.94,314.99L649.12,315.00L652.30,315.00L655.48,315.01L658.66,315.01L661.84,315.02L665.02,315.03L668.20,315.03L671.38,315.04L674.56,315.04L677.74,315.05L680.92,315.05L684.10,315.06L687.28,315.07L690.46,315.07L693.64,315.08L696.82,315.08L700.00,315.09" fill="none" stroke="#3fb950" stroke-width="2" stroke-linejoin="round" stroke-dasharray="5 4"/>
<line x1="550" y1="94" x2="574" y2="94" stroke="#3fb950" stroke-width="2" stroke-dasharray="5 4"/>
<text x="580" y="98" fill="#8b949e">A (s-pol)</text>
<path d="M64.00,302.34L67.18,302.34L70.36,302.35L73.54,302.35L76.72,302.35L79.90,302.35L83.08,302.36L86.26,302.36L89.44,302.36L92.62,302.37L95.80,302.37L98.98,302.37L102.16,302.38L105.34,302.38L108.52,302.38L111.70,302.39L114.88,302.39L118.06,302.40L121.24,302.40L124.42,302.40L127.60,302.41L130.78,302.41L133.96,302.42L137.14,302.42L140.32,302.43L143.50,302.43L146.68,302.44L149.86,302.44L153.04,302.45L156.22,302.45L159.40,302.46L162.58,302.46L165.76,302.47L168.94,302.47L172.12,302.48L175.30,302.48L178.48,302.49L181.66,302.49L184.84,302.50L188.02,302.51L191.20,302.51L194.38,302.52L197.56,302.52L200.74,302.53L203.92,302.54L207.10,302.54L210.28,302.55L213.46,302.55L216.64,302.56L219.82,302.57L223.00,302.57L226.18,302.58L229.36,302.59L232.54,302.59L235.72,302.60L238.90,302.61L242.08,302.62L245.26,302.62L248.44,302.63L251.62,302.64L254.80,302.64L257.98,302.65L261.16,302.66L264.34,302.67L267.52,302.67L270.70,302.68L273.88,302.69L277.06,302.70L280.24,302.70L283.42,302.71L286.60,302.72L289.78,302.73L292.96,302.74L296.14,302.74L299.32,302.75L302.50,302.76L305.68,302.77L308.86,302.78L312.04,302.78L315.22,302.79L318.40,302.80L321.58,302.81L324.76,302.82L327.94,302.83L331.12,302.84L334.30,302.84L337.48,302.85L340.66,302.86L343.84,302.87L347.02,302.88L350.20,302.89L353.38,302.90L356.56,302.91L359.74,302.91L362.92,302.92L366.10,302.93L369.28,302.94L372.46,302.95L375.64,302.96L378.82,302.97L382.00,302.98L385.18,302.99L388.36,303.00L391.54,303.01L394.72,303.02L397.90,303.02L401.08,303.03L404.26,303.04L407.44,303.05L410.62,303.06L413.80,303.07L416.98,303.08L420.16,303.09L423.34,303.10L426.52,303.11L429.70,303.12L432.88,303.13L436.06,303.14L439.24,303.15L442.42,303.16L445.60,303.17L448.78,303.18L451.96,303.19L455.14,303.20L458.32,303.21L461.50,303.22L464.68,303.23L467.86,303.24L471.04,303.25L474.22,303.26L477.40,303.27L480.58,303.28L483.76,303.29L486.94,303.30L490.12,303.31L493.30,303.32L496.48,303.33L499.66,303.34L502.84,303.35L506.02,303.36L509.20,303.38L512.38,303.39L515.56,303.40L518.74,303.41L521.92,303.42L525.10,303.43L528.28,303.44L531.46,303.45L534.64,303.46L537.82,303.47L541.00,303.48L544.18,303.49L547.36,303.50L550.54,303.51L553.72,303.52L556.90,303.54L560.08,303.55L563.26,303.56L566.44,303.57L569.62,303.58L572.80,303.59L575.98,303.60L579.16,303.61L582.34,303.62L585.52,303.63L588.70,303.64L591.88,303.66L595.06,303.67L598.24,303.68L601.42,303.69L604.60,303.70L607.78,303.71L610.96,303.72L614.14,303.73L617.32,303.75L620.50,303.76L623.68,303.77L626.86,303.78L630.04,303.79L633.22,303.80L636.40,303.81L639.58,303.82L642.76,303.84L645.94,303.85L649.12,303.86L652.30,303.87L655.48,303.88L658.66,303.89L661.84,303.90L665.02,303.91L668.20,303.93L671.38,303.94L674.56,303.95L677.74,303.96L680.92,303.97L684.10,303.98L687.28,303.99L690.46,304.01L693.64,304.02L696.82,304.03L700.00,304.04" fill="none" stroke="#f85149" stroke-width="2" stroke-linejoin="round" stroke-dasharray="5 4"/>
<line x1="550" y1="112" x2="574" y2="112" stroke="#f85149" stroke-width="2" stroke-dasharray="5 4"/>
<text x="580" y="116" fill="#8b949e">A (p-pol)</text>
</svg>